<svg id="Слой_1" data-name="Слой 1" xmlns="http://www.w3.org/2000/svg" viewBox="0 0 335.01 88.19"><defs><style>.cls-1{fill:none;stroke:#67beec;stroke-width:7px;}.cls-1,.cls-3{stroke-miterlimit:10;}.cls-2{fill:#67beec;}.cls-3,.cls-4{fill:#fff;}.cls-3{stroke:#00a19a;}</style></defs><path class="cls-1" d="M143.23,410.09a10,10,0,0,1-9.73-9.73,9.72,9.72,0,0,1,9.73-9.73,10,10,0,0,1,9.73,9.73" transform="translate(-130 -368.76)"/><rect class="cls-2" x="12.5" y="37.84" width="59.23" height="7.01"/><rect class="cls-2" x="133.85" y="415.79" width="38.22" height="6.99" transform="translate(-396.33 203.49) rotate(-90)"/><path class="cls-1" d="M201.63,410.1a10,10,0,0,1,9.74,9.74,9.74,9.74,0,0,1-9.74,9.73,10,10,0,0,1-9.73-9.73" transform="translate(-130 -368.76)"/><path class="cls-1" d="M172.43,437.47a10,10,0,0,1-9.73,9.74,9.74,9.74,0,0,1-9.74-9.74" transform="translate(-130 -368.76)"/><rect class="cls-2" x="144.16" y="406.63" width="56.54" height="6.99" transform="translate(-367.69 213.8) rotate(-90)"/><path class="cls-1" d="M172.43,382a10,10,0,0,1,9.74-9.73A9.73,9.73,0,0,1,191.9,382" transform="translate(-130 -368.76)"/><rect class="cls-2" x="172.79" y="397.47" width="38.22" height="6.99" transform="translate(-339.06 224.11) rotate(-90)"/><path class="cls-3" d="M241.58,472.24" transform="translate(-130 -368.76)"/><rect class="cls-4" x="104.85" y="18.11" width="7.32" height="51.52" rx="3.66"/><rect class="cls-4" x="104.78" y="17.87" width="33.15" height="7.24" rx="3.62"/><rect class="cls-4" x="140.31" y="13.75" width="7.47" height="55.69" rx="3.73"/><path class="cls-4" d="M300.58,401.22a18.49,18.49,0,1,0,18.48,18.49A18.49,18.49,0,0,0,300.58,401.22Zm0,29.64a11.16,11.16,0,1,1,11.15-11.15A11.16,11.16,0,0,1,300.58,430.86Z" transform="translate(-130 -368.76)"/><rect class="cls-4" x="104.85" y="40.09" width="27.78" height="7.34" rx="3.67"/><rect class="cls-4" x="325.97" y="400.24" width="7.47" height="39.13" rx="3.73" transform="translate(-257.68 -224.16) rotate(-20.82)"/><rect class="cls-4" x="348.39" y="400.24" width="7.47" height="39.13" rx="3.73" transform="translate(-256.22 -216.19) rotate(-20.82)"/><rect class="cls-4" x="337.21" y="400.32" width="7.47" height="39.13" rx="3.73" transform="translate(41.4 -462.49) rotate(20.81)"/><rect class="cls-4" x="359.74" y="400.24" width="7.47" height="39.13" rx="3.73" transform="translate(42.85 -470.5) rotate(20.81)"/><rect class="cls-4" x="245.49" y="32.46" width="7.47" height="37.04" rx="3.73"/><rect class="cls-4" x="245.49" y="17.74" width="7.47" height="7.47" rx="3.73"/><path class="cls-4" d="M394.53,419.59a11.16,11.16,0,0,1,22.31,0h7.33a18.49,18.49,0,1,0-37,0Z" transform="translate(-130 -368.76)"/><path class="cls-4" d="M420.44,438.23a3.57,3.57,0,0,1-3.74-3.37V408.2c.32-1.21.72-2.4,1.1-2.38,1.22.08.86,12.66,2.87,12.91,1,.13,2-3.09,2.87-2.87s.62,3.36.63,4.16c.05,3.51.09,8.52,0,14.84A4.07,4.07,0,0,1,420.44,438.23Z" transform="translate(-130 -368.76)"/><path class="cls-4" d="M421.32,402.16" transform="translate(-130 -368.76)"/><path class="cls-4" d="M391,438.16a3.55,3.55,0,0,0,3.72-3.35V408.26c-.25-1-.68-2.4-1.09-2.37-1.23.08-.88,13-2.82,13.24-1,.12-2-3.45-2.9-3.25s-.62,3.31-.63,4.14c-.05,3.51-.09,8.5,0,14.79A4,4,0,0,0,391,438.16Z" transform="translate(-130 -368.76)"/><path class="cls-4" d="M461.27,442.47c2.05,0,3.72-1.23,3.72-2.75V418c-.33-1-.71-2-1.09-1.94-1.4.07-1.1,13.18-2.73,13.28-1.05.06-2.13-5.2-3-5.1-.55.06-.6,2.3-.62,3.38-.05,2.87-.09,6.95,0,12.09A3.87,3.87,0,0,0,461.27,442.47Z" transform="translate(-130 -368.76)"/><path class="cls-4" d="M446.52,401.1A18.49,18.49,0,1,0,465,419.59,18.49,18.49,0,0,0,446.52,401.1Zm0,29.65a11.16,11.16,0,1,1,11.15-11.16A11.16,11.16,0,0,1,446.52,430.75Z" transform="translate(-130 -368.76)"/><path class="cls-4" d="M457.67,438.46h0a11.15,11.15,0,0,1-21.31,4.59h-7.73A18.47,18.47,0,0,0,465,438.46Z" transform="translate(-130 -368.76)"/><path class="cls-4" d="M432.56,440.14a4,4,0,0,0-3.93,2.9v0h7.75A4,4,0,0,0,432.56,440.14Z" transform="translate(-130 -368.76)"/></svg>