<svg width="37" height="31" viewBox="0 0 37 31" fill="none" xmlns="http://www.w3.org/2000/svg">
<path d="M18.4998 0.875C27.2618 0.875 34.5516 7.18 36.0807 15.5C34.5532 23.82 27.2618 30.125 18.4998 30.125C9.73782 30.125 2.44807 23.82 0.918945 15.5C2.44645 7.18 9.73782 0.875 18.4998 0.875ZM18.4998 26.875C21.814 26.8743 25.0297 25.7486 27.6207 23.6821C30.2117 21.6157 32.0245 18.7309 32.7624 15.5C32.0218 12.2716 30.2078 9.39001 27.6171 7.32629C25.0263 5.26258 21.8121 4.13886 18.4998 4.13886C15.1876 4.13886 11.9733 5.26258 9.38256 7.32629C6.7918 9.39001 4.97782 12.2716 4.2372 15.5C4.9751 18.7309 6.78792 21.6157 9.37893 23.6821C11.9699 25.7486 15.1857 26.8743 18.4998 26.875ZM18.4998 22.8125C16.5604 22.8125 14.7005 22.0421 13.3291 20.6707C11.9577 19.2994 11.1873 17.4394 11.1873 15.5C11.1873 13.5606 11.9577 11.7006 13.3291 10.3293C14.7005 8.95792 16.5604 8.1875 18.4998 8.1875C20.4392 8.1875 22.2992 8.95792 23.6705 10.3293C25.0419 11.7006 25.8123 13.5606 25.8123 15.5C25.8123 17.4394 25.0419 19.2994 23.6705 20.6707C22.2992 22.0421 20.4392 22.8125 18.4998 22.8125ZM18.4998 19.5625C19.5773 19.5625 20.6106 19.1345 21.3724 18.3726C22.1343 17.6108 22.5623 16.5774 22.5623 15.5C22.5623 14.4226 22.1343 13.3892 21.3724 12.6274C20.6106 11.8655 19.5773 11.4375 18.4998 11.4375C17.4224 11.4375 16.3891 11.8655 15.6272 12.6274C14.8653 13.3892 14.4373 14.4226 14.4373 15.5C14.4373 16.5774 14.8653 17.6108 15.6272 18.3726C16.3891 19.1345 17.4224 19.5625 18.4998 19.5625Z" fill="black"/>
</svg>
